<svg xmlns="http://www.w3.org/2000/svg" xmlns:xlink="http://www.w3.org/1999/xlink" width="9033.488" height="2119.055"
  viewBox="0 0 9033.488 2119.055">
  <defs>
    <linearGradient id="linear-gradient" x1="1" y1="1" x2="0" y2="1" gradientUnits="objectBoundingBox">
      <stop offset="0" stop-color="#02edff" />
      <stop offset="1" stop-color="#da5fda" />
    </linearGradient>
    <linearGradient id="linear-gradient-2" x1="0" x2="1" xlink:href="#linear-gradient" />
  </defs>
  <g id="Group_41" data-name="Group 41" transform="translate(18451.043 18949)">
    <g id="Group_39" data-name="Group 39">
      <path id="Path_48" data-name="Path 48"
        d="M-3.928-15.857s43.633-4.471,101.818,0c30.124,2.315,67.432,13.731,105.654,19.81,70,19.811,158.551,45.075,233.761,67.355,70.9,21,142.881,39.52,203.384,50.186C740.182,139.032,810.8,141.136,810.8,141.136s153.459,6.771,311.941-36.812c89.806-22.451,177.949-51.706,276.021-81.882,237.635-94.3,474.852-132.457,528.271-133.389,124.812-2.178,162.957-8.9,361.866,15.848,100.618,12.52,208.914,35.279,316.963,59.431,139.981,31.29,257.987,57.056,362.684,75.59,49.332,8.733,96.186,14.623,140.186,21.006,9.247.406,55.662,6.413,103.467,9.228,47.246,2.782,95.87,2.375,110.616,1.829,29.551-1.094,77.73-3.688,109.993-8.208,35.6-4.987,60.49-8.636,93.028-16.143,55.53-12.811,106.032-29.758,152.146-46.768C3715-12.788,3749.09-26.265,3779.71-41.213c140.552-68.6,177.1-99.88,213.317-124.272,15.681-10.562,50.5-36.449,82.623-64.852,13.723-12.134,27.31-25.281,39.272-36.685,23.69-22.581,23.668-22.3,41.316-38.853s29.276-27.361,29.276-27.361l34.2-32.013s35.759-31.99,64.941-56.987,27.4-23.236,51.789-43,40.923-31.631,45.3-34.641c1.992-1.369,12.66-9.461,24.847-17.224,7.333-4.671,12.5-7.728,17.443-10.587a111.843,111.843,0,0,1,12.811-6.632c10.034-4.252,12.074-4.875,12.074-4.875l10.261-3.062a117.866,117.866,0,0,1,21.03-3.911c11.507-1.035,16.043-1.1,24.942-.521s9.92.8,9.92.8L4515,0V1572H-4.043Z"
        transform="translate(-18447 -18401.945)" fill="url(#linear-gradient)" />
      <path id="Path_47" data-name="Path 47"
        d="M4515.377-15.883s-40-4.445-98.186.026c-30.125,2.315-67.432,13.731-105.654,19.81-70,19.811-158.551,45.075-233.761,67.355-70.9,21-142.881,39.52-203.384,50.186-99.492,17.539-170.107,19.643-170.107,19.643s-153.459,6.771-311.941-36.812c-89.806-22.451-177.949-51.706-276.021-81.882-237.635-94.3-474.852-132.457-528.271-133.389-124.812-2.178-162.957-8.9-361.866,15.848-100.618,12.52-208.914,35.279-316.963,59.431-139.981,31.29-257.987,57.056-362.684,75.59-49.332,8.733-96.186,14.623-140.186,21.006-9.247.406-55.662,6.413-103.467,9.228-47.246,2.782-95.87,2.375-110.616,1.829-29.551-1.094-77.73-3.688-109.993-8.208-35.6-4.987-60.49-8.636-93.028-16.143C933.713,34.823,883.21,17.877,837.1.866c-37.019-13.654-71.11-27.131-101.734-42.079-140.552-68.6-177.1-99.88-213.317-124.272-15.681-10.562-50.5-36.449-82.623-64.852-13.723-12.134-27.31-25.281-39.272-36.685-23.69-22.581-23.668-22.3-41.316-38.853s-29.276-27.361-29.276-27.361l-34.2-32.013s-35.759-31.99-64.941-56.987-27.4-23.236-51.789-43-40.923-31.631-45.3-34.641c-1.992-1.369-12.66-9.461-24.847-17.224-7.333-4.671-12.5-7.728-17.443-10.587a111.9,111.9,0,0,0-12.811-6.632C68.2-538.572,66.157-539.2,66.157-539.2L55.9-542.257a117.858,117.858,0,0,0-21.03-3.911c-11.507-1.035-16.043-1.1-24.942-.521s-9.92.8-9.92.8L.076,0V1572l4515.287-1.941Z"
        transform="translate(-13932.932 -18401.945)" fill="url(#linear-gradient-2)" />
    </g>
    <g id="Group_40" data-name="Group 40">
      <path id="Path_48-2" data-name="Path 48"
        d="M-3.928-15.857s43.633-4.471,101.818,0c30.124,2.315,67.432,13.731,105.654,19.81,70,19.811,158.551,45.075,233.761,67.355,70.9,21,142.881,39.52,203.384,50.186C740.182,139.032,810.8,141.136,810.8,141.136s153.459,6.771,311.941-36.812c89.806-22.451,177.949-51.706,276.021-81.882,237.635-94.3,474.852-132.457,528.271-133.389,124.812-2.178,162.957-8.9,361.866,15.848,100.618,12.52,208.914,35.279,316.963,59.431,139.981,31.29,257.987,57.056,362.684,75.59,49.332,8.733,96.186,14.623,140.186,21.006,9.247.406,55.662,6.413,103.467,9.228,47.246,2.782,95.87,2.375,110.616,1.829,29.551-1.094,77.73-3.688,109.993-8.208,35.6-4.987,60.49-8.636,93.028-16.143,55.53-12.811,106.032-29.758,152.146-46.768C3715-12.788,3749.09-26.265,3779.71-41.213c140.552-68.6,177.1-99.88,213.317-124.272,15.681-10.562,50.5-36.449,82.623-64.852,13.723-12.134,27.31-25.281,39.272-36.685,23.69-22.581,23.668-22.3,41.316-38.853s29.276-27.361,29.276-27.361l34.2-32.013s35.759-31.99,64.941-56.987,27.4-23.236,51.789-43,40.923-31.631,45.3-34.641c1.992-1.369,12.66-9.461,24.847-17.224,7.333-4.671,12.5-7.728,17.443-10.587a111.843,111.843,0,0,1,12.811-6.632c10.034-4.252,12.074-4.875,12.074-4.875l10.261-3.062a117.866,117.866,0,0,1,21.03-3.911c11.507-1.035,16.043-1.1,24.942-.521s9.92.8,9.92.8L4515,0V1572H-4.043Z"
        transform="translate(-18447 -18401.945)" fill="url(#linear-gradient)" />
    </g>
  </g>
</svg>