<svg xmlns="http://www.w3.org/2000/svg" width="23.186" height="29.81" viewBox="0 0 23.186 29.81">
  <path id="delete-svgrepo-com" d="M20.217,29.81H6.968A3.312,3.312,0,0,1,3.656,26.5v-14.9A1.656,1.656,0,0,1,5.312,9.937H21.873a1.656,1.656,0,0,1,1.656,1.656V26.5A3.312,3.312,0,0,1,20.217,29.81ZM25.186,4.968a1.656,1.656,0,0,1-1.656,1.656H3.656a1.656,1.656,0,1,1,0-3.312H8.624V1.656A1.656,1.656,0,0,1,10.281,0H16.9a1.656,1.656,0,0,1,1.656,1.656V3.312h4.968A1.656,1.656,0,0,1,25.186,4.968Z" transform="translate(-2)" fill="#fff"/>
</svg>
