<svg xmlns="http://www.w3.org/2000/svg" width="434" height="490" viewBox="0 0 434 490">
  <g id="upload" transform="translate(462 490) rotate(180)">
    <g id="Group_40" data-name="Group 40">
      <g id="Group_39" data-name="Group 39">
        <path id="Path_49" data-name="Path 49" d="M262.2,472.9V141.6L321,200.4a17.147,17.147,0,1,0,24.2-24.3L257.1,88c-6.4-6.4-17.8-6.4-24.3,0l-88.1,88.1A17.183,17.183,0,0,0,169,200.4l58.8-58.8V472.8a17.2,17.2,0,0,0,34.4.1Z"/>
        <path id="Path_50" data-name="Path 50" d="M28,17.1v99.7a17.15,17.15,0,1,0,34.3,0V34.3H427.8v82.6a17.1,17.1,0,1,0,34.2,0V17.1A17.092,17.092,0,0,0,444.9,0H45.2A17.114,17.114,0,0,0,28,17.1Z"/>
      </g>
    </g>
  </g>
</svg>
