<svg id="cancel-close-svgrepo-com" xmlns="http://www.w3.org/2000/svg" width="18.083" height="18.083" viewBox="0 0 18.083 18.083">
  <g id="Group_42" data-name="Group 42">
    <path id="Path_51" data-name="Path 51" d="M11.033,9.057,17.795,2.3a.991.991,0,0,0,0-1.4L17.2.3a.992.992,0,0,0-1.4,0L9.042,7.066,2.281.3a.991.991,0,0,0-1.4,0L.289.9a.99.99,0,0,0,0,1.4L7.051,9.057.289,15.818a.992.992,0,0,0,0,1.4l.593.592a.991.991,0,0,0,1.4,0l6.761-6.761L15.8,17.81a.981.981,0,0,0,.7.289h0a.981.981,0,0,0,.7-.289l.592-.592a.992.992,0,0,0,0-1.4Z" transform="translate(0 -0.016)"/>
  </g>
</svg>
