<svg xmlns="http://www.w3.org/2000/svg" width="29.498" height="29.495" viewBox="0 0 29.498 29.495">
  <g id="cancel-close-svgrepo-com" transform="translate(0 -0.016)">
    <g id="Group_42" data-name="Group 42" transform="translate(0 0.016)">
      <path id="Path_51" data-name="Path 51"
        d="M18,14.764,29.026,3.735a1.616,1.616,0,0,0,0-2.281L28.059.487a1.617,1.617,0,0,0-2.282,0L14.749,11.515,3.72.487a1.616,1.616,0,0,0-2.281,0l-.967.966a1.614,1.614,0,0,0,0,2.281L11.5,14.764.472,25.792a1.618,1.618,0,0,0,0,2.282l.967.966a1.616,1.616,0,0,0,2.281,0L14.749,18.012,25.777,29.04a1.6,1.6,0,0,0,1.141.471h0a1.6,1.6,0,0,0,1.141-.471l.966-.966a1.618,1.618,0,0,0,0-2.282Z"
        transform="translate(0 -0.016)" />
    </g>
  </g>
</svg>