<svg xmlns="http://www.w3.org/2000/svg" xmlns:xlink="http://www.w3.org/1999/xlink" width="17.098" height="24.098" viewBox="0 0 17.098 24.098">
  <defs>
    <clipPath id="clip-path">
      <rect width="17.098" height="24.098" fill="none"/>
    </clipPath>
  </defs>
  <g id="Scroll_Group_2" data-name="Scroll Group 2" clip-path="url(#clip-path)" style="isolation: isolate">
    <g id="Group_46" data-name="Group 46" transform="translate(15925 -11112.902)">
      <path id="date-svgrepo-com_2_" data-name="date-svgrepo-com (2)" d="M4.85,0a.6.6,0,0,1,.6.6V1.717h6.426V.605a.6.6,0,0,1,1.2,0V1.717h2.317A1.709,1.709,0,0,1,17.1,3.426V15.389a1.709,1.709,0,0,1-1.71,1.709H1.71A1.709,1.709,0,0,1,0,15.389V3.426A1.709,1.709,0,0,1,1.71,1.717H4.251V.6A.6.6,0,0,1,4.85,0ZM1.2,6.619v8.77a.513.513,0,0,0,.513.513H15.388a.513.513,0,0,0,.513-.513V6.63ZM5.7,12.5v1.424H4.274V12.5Zm3.562,0v1.424H7.836V12.5Zm3.562,0v1.424H11.4V12.5ZM5.7,9.1v1.424H4.274V9.1Zm3.562,0v1.424H7.836V9.1Zm3.562,0v1.424H11.4V9.1ZM4.251,2.913H1.71a.513.513,0,0,0-.513.513v2l14.7.012V3.426a.513.513,0,0,0-.513-.513H13.071v.794a.6.6,0,0,1-1.2,0V2.913H5.448V3.7a.6.6,0,0,1-1.2,0Z" transform="translate(-15925 11112.902)" fill="#dbdbdb"/>
      <text id="OLD" transform="translate(-15923.451 11137)" fill="#dbdbdb" font-size="8" font-family="TwCenMT-Regular, Tw Cen MT" letter-spacing="0.002em"><tspan x="0" y="0">OLD</tspan></text>
    </g>
  </g>
</svg>
