<svg xmlns="http://www.w3.org/2000/svg" width="22" height="22" viewBox="0 0 22 22">
  <g id="_-Product-Icons" data-name="ðŸ”-Product-Icons" transform="translate(-3 -3)">
    <g id="ic_fluent_grid_28_filled">
      <path id="_-Color" data-name="ðŸŽ¨-Color"
        d="M10.75,15A2.25,2.25,0,0,1,13,17.25v5.5A2.25,2.25,0,0,1,10.75,25H5.25A2.25,2.25,0,0,1,3,22.75v-5.5A2.25,2.25,0,0,1,5.25,15Zm12,0A2.25,2.25,0,0,1,25,17.25v5.5A2.25,2.25,0,0,1,22.75,25h-5.5A2.25,2.25,0,0,1,15,22.75v-5.5A2.25,2.25,0,0,1,17.25,15Zm-12-12A2.25,2.25,0,0,1,13,5.25v5.5A2.25,2.25,0,0,1,10.75,13H5.25A2.25,2.25,0,0,1,3,10.75V5.25A2.25,2.25,0,0,1,5.25,3Zm12,0A2.25,2.25,0,0,1,25,5.25v5.5A2.25,2.25,0,0,1,22.75,13h-5.5A2.25,2.25,0,0,1,15,10.75V5.25A2.25,2.25,0,0,1,17.25,3Z"
        fill="#a4a4a4" />
    </g>
  </g>
</svg>