<svg xmlns="http://www.w3.org/2000/svg" width="69.436" height="49.715" viewBox="0 0 69.436 49.715">
    <g id="folder-svgrepo-com" transform="translate(0 -42.425)">
        <g id="Group_6" data-name="Group 6" transform="translate(0 42.425)">
            <path id="Path_15" data-name="Path 15"
                d="M67.8,60.243H58.511V53.362a1.639,1.639,0,0,0-1.639-1.639H34.665l-3.927-8.356a1.639,1.639,0,0,0-1.483-.942H1.639A1.639,1.639,0,0,0,0,44.064V90.5A1.643,1.643,0,0,0,1.639,92.14H56.872A1.639,1.639,0,0,0,58.4,91.086l10.923-28.62A1.64,1.64,0,0,0,67.8,60.243ZM3.277,45.7H28.215l3.927,8.356A1.639,1.639,0,0,0,33.625,55H55.234v5.243H12.562A1.639,1.639,0,0,0,11.031,61.3L3.277,81.614ZM55.744,88.863H4.018L13.69,63.52H65.416Z"
                transform="translate(0 -42.425)" fill="#fff" />
        </g>
    </g>
</svg>