<?xml version="1.0" encoding="UTF-8"?>
<svg xmlns="http://www.w3.org/2000/svg" xmlns:xlink="http://www.w3.org/1999/xlink" width="50px" height="50px"
    viewBox="0 0 50 48" version="1.1">
    <g id="surface1">
        <path style=" stroke:none;fill-rule:nonzero;fill-opacity:1;"
            d="M 24.082031 46.695312 C 24.074219 45.671875 24.90625 44.835938 25.941406 44.828125 C 35.664062 44.777344 44.023438 38.007812 45.980469 28.605469 C 48.035156 19.1875 43.222656 9.621094 34.378906 5.550781 C 25.5625 1.570312 15.128906 4.296875 9.460938 12.0625 C 3.726562 19.875 4.183594 30.558594 10.570312 37.859375 L 10.570312 31.296875 C 10.554688 30.628906 10.90625 30.003906 11.488281 29.664062 C 12.074219 29.324219 12.796875 29.324219 13.382812 29.664062 C 13.964844 30.003906 14.316406 30.628906 14.296875 31.296875 L 14.296875 41.867188 C 14.300781 42.363281 14.101562 42.835938 13.75 43.1875 C 13.402344 43.539062 12.929688 43.738281 12.433594 43.738281 L 1.890625 43.738281 C 0.847656 43.738281 0 42.902344 0 41.871094 C 0 40.839844 0.847656 40 1.890625 40 L 7.480469 40 C 0.121094 31.265625 -0.214844 18.6875 6.667969 9.582031 C 13.464844 0.527344 25.785156 -2.542969 36.121094 2.242188 C 46.484375 7.128906 52.074219 18.425781 49.601562 29.503906 C 47.246094 40.566406 37.394531 48.503906 25.945312 48.566406 C 25.449219 48.566406 24.976562 48.367188 24.628906 48.019531 C 24.277344 47.664062 24.082031 47.1875 24.082031 46.695312 Z M 31.222656 34.707031 L 24.621094 28.09375 C 24.273438 27.742188 24.078125 27.265625 24.078125 26.773438 L 24.078125 13.820312 C 24.058594 13.148438 24.410156 12.523438 24.992188 12.183594 C 25.578125 11.84375 26.300781 11.84375 26.886719 12.183594 C 27.46875 12.523438 27.820312 13.148438 27.804688 13.820312 L 27.804688 25.996094 L 33.855469 32.0625 C 34.582031 32.796875 34.582031 33.972656 33.855469 34.707031 C 33.507812 35.054688 33.03125 35.253906 32.535156 35.253906 C 32.039062 35.253906 31.5625 35.054688 31.214844 34.707031 Z M 31.222656 34.707031 " />
    </g>
</svg>