<svg xmlns="http://www.w3.org/2000/svg" width="43" height="33" viewBox="0 0 43 33">
  <g id="Group_73" data-name="Group 73" transform="translate(8799.5 -8926.5)">
    <path id="folder" d="M17.5,5,13.125,0H0V30H40V5Z" transform="translate(-8798 8928)" fill="#fff"  stroke-linejoin="bevel" stroke-width="3"/>
    <path id="Path_78" data-name="Path 78" d="M15.052,12.269a4.089,4.089,0,1,0-5.118,0A7.5,7.5,0,0,0,5,19.309v.682H19.993v-.682A7.5,7.5,0,0,0,15.052,12.269ZM9.771,9.086A2.726,2.726,0,1,1,12.5,11.812,2.726,2.726,0,0,1,9.771,9.086ZM6.4,18.627a6.134,6.134,0,0,1,12.192,0Z" transform="translate(-8783 8938.01)" fill="#dbdbdb"/>
  </g>
</svg>
