<svg xmlns="http://www.w3.org/2000/svg" xmlns:xlink="http://www.w3.org/1999/xlink" width="118.864" height="147.176" viewBox="0 0 118.864 147.176">
  <defs>
    <filter id="Path_27" x="0" y="0" width="118.864" height="147.176" filterUnits="userSpaceOnUse">
      <feOffset input="SourceAlpha"/>
      <feGaussianBlur stdDeviation="3" result="blur"/>
      <feFlood flood-opacity="0.2"/>
      <feComposite operator="in" in2="blur"/>
      <feComposite in="SourceGraphic"/>
    </filter>
  </defs>
  <g id="Group_40" data-name="Group 40" transform="translate(15982 -5740.912)">
    <g transform="matrix(1, 0, 0, 1, -15982, 5740.91)" filter="url(#Path_27)">
      <path id="Path_27-2" data-name="Path 27" d="M8.676,0H73.531l27.333,26.89v90.638s.137,5.137-2.341,8.049-7.57,3.6-7.57,3.6H9.839s-3.877-.115-6.337-2.2S0,120.816,0,120.816V8.924A11.781,11.781,0,0,1,2.705,3.267,15.256,15.256,0,0,1,8.676,0Z" transform="translate(9 9)" fill="#fff"/>
    </g>
    <path id="file-svgrepo-com" d="M156.854,28c0-.047-.013-.092-.02-.138,0-.015,0-.031-.007-.046-.011-.054-.025-.107-.04-.16,0-.006,0-.013-.005-.019-.016-.054-.036-.106-.057-.158l-.006-.016c-.02-.049-.044-.1-.068-.144l-.011-.024c-.024-.044-.05-.086-.076-.127l-.019-.032c-.026-.039-.055-.076-.083-.113-.009-.012-.018-.025-.028-.037-.036-.044-.074-.085-.114-.126l-.011-.012L130.018.555,130,.542c-.039-.039-.08-.076-.123-.111-.014-.011-.029-.021-.043-.032-.035-.027-.07-.054-.106-.079L129.692.3c-.039-.025-.079-.05-.12-.072l-.028-.013c-.046-.024-.092-.046-.14-.066l-.019-.007c-.051-.02-.1-.04-.156-.056l-.02-.005c-.052-.015-.1-.029-.159-.04L129,.03c-.045-.008-.089-.016-.135-.02a1.888,1.888,0,0,0-.189-.01H65.985A10,10,0,0,0,56,9.985V119.191a10,10,0,0,0,9.985,9.985h80.893a10,10,0,0,0,9.985-9.985v-91A1.889,1.889,0,0,0,156.854,28Zm-9.976,97.387H65.985a6.2,6.2,0,0,1-6.193-6.193V9.985a6.2,6.2,0,0,1,6.193-6.193h60.8c0,.894,15.071,16.714,26.29,26.29v89.109A6.2,6.2,0,0,1,146.878,125.384Z" transform="translate(-16029 5749.912)" fill="#fff"/>
  </g>
</svg>
