<svg xmlns="http://www.w3.org/2000/svg" width="19.257" height="18.473" viewBox="0 0 19.257 18.473">
  <g id="Group_42" data-name="Group 42" transform="translate(15944.999 -6231)">
    <path id="Path_49" data-name="Path 49"
      d="M13.088,11.643,15.921,7.08l3.461,4.563,5.035,2.045-4.091,3.934.945,6.19-5.351-1.785-6.137,1.1.787-5.507L6.952,12.9Z"
      transform="translate(-15951 6225)" fill="#fff706" />
    <g id="star-svgrepo-com" transform="translate(-15945 6226.56)">
      <path id="Path_28" data-name="Path 28"
        d="M18.768,13.035a1.617,1.617,0,0,0-.9-2.758L13.192,9.6a.026.026,0,0,1-.02-.014L11.079,5.341a1.617,1.617,0,0,0-2.9,0L6.086,9.583a.026.026,0,0,1-.02.014l-4.68.68a1.617,1.617,0,0,0-.9,2.758l3.387,3.3a.026.026,0,0,1,.008.023l-.8,4.662a1.617,1.617,0,0,0,2.346,1.7l4.186-2.2a.026.026,0,0,1,.024,0l4.186,2.2a1.617,1.617,0,0,0,2.346-1.7l-.8-4.662a.026.026,0,0,1,.008-.023Zm-4.962,3.593.8,4.662c0,.012,0,.016-.01.026s-.017.008-.028,0l-4.186-2.2a1.617,1.617,0,0,0-1.5,0l-4.186,2.2c-.011.006-.014.008-.028,0s-.013-.013-.01-.026l.8-4.662A1.616,1.616,0,0,0,4.987,15.2L1.6,11.9c-.009-.009-.012-.011-.007-.027s.009-.016.021-.018l4.68-.68a1.616,1.616,0,0,0,1.217-.884L9.606,6.045c.006-.011.007-.015.023-.015s.018,0,.023.015l2.093,4.241a1.616,1.616,0,0,0,1.217.884l4.68.68c.012,0,.016,0,.021.018s0,.018-.007.027l-3.387,3.3A1.617,1.617,0,0,0,13.806,16.628Z"
        transform="translate(0)" fill="#fff706" />
    </g>
  </g>
</svg>