<svg xmlns="http://www.w3.org/2000/svg" width="457.595" height="460" viewBox="0 0 457.595 460">
  <g id="copy-svgrepo-com" transform="translate(-1.203)">
    <g id="Group_54" data-name="Group 54">
      <g id="Group_53" data-name="Group 53">
        <path id="Path_66" data-name="Path 66" d="M425.934,0H171.662A32.9,32.9,0,0,0,138.8,32.864V110h30V32.864A2.868,2.868,0,0,1,171.662,30H425.934a2.868,2.868,0,0,1,2.864,2.864V287.136A2.868,2.868,0,0,1,425.934,290H351.205v30h74.729A32.9,32.9,0,0,0,458.8,287.136V32.864A32.9,32.9,0,0,0,425.934,0Z"/>
        <path id="Path_67" data-name="Path 67" d="M288.339,140H34.068A32.9,32.9,0,0,0,1.2,172.863V427.135A32.9,32.9,0,0,0,34.068,460H288.34A32.9,32.9,0,0,0,321.2,427.136V172.863A32.9,32.9,0,0,0,288.339,140Zm0,290H34.068a2.868,2.868,0,0,1-2.865-2.864V172.863A2.868,2.868,0,0,1,34.068,170H288.34a2.868,2.868,0,0,1,2.865,2.865V427.136h0A2.868,2.868,0,0,1,288.341,430Z"/>
      </g>
    </g>
  </g>
</svg>
