<svg xmlns="http://www.w3.org/2000/svg" width="40" height="27.155" viewBox="0 0 40 27.155">
  <g id="email-svgrepo-com_1_" data-name="email-svgrepo-com (1)" transform="translate(0 -12.089)">
    <path id="Path_65" data-name="Path 65" d="M35.114,12.089H4.886A4.892,4.892,0,0,0,0,16.975V34.359a4.892,4.892,0,0,0,4.886,4.886H35.114A4.892,4.892,0,0,0,40,34.359V16.975A4.891,4.891,0,0,0,35.114,12.089Zm-2.387,3.188L20,23.476l-12.727-8.2Zm2.387,20.781H4.886a1.7,1.7,0,0,1-1.7-1.7V17.066L19.017,27.245c.021.013.044.022.066.035l.07.037a1.836,1.836,0,0,0,.378.148l.04.008a1.87,1.87,0,0,0,.429.054h0a1.841,1.841,0,0,0,.429-.054l.04-.008a1.848,1.848,0,0,0,.378-.148l.07-.037c.022-.012.045-.021.066-.035L36.814,17.066V34.359A1.7,1.7,0,0,1,35.114,36.057Z" transform="translate(0 0)"/>
  </g>
</svg>
