<svg xmlns="http://www.w3.org/2000/svg" width="195.086" height="195.065" viewBox="0 0 195.086 195.065">
  <g id="link-svgrepo-com" transform="translate(0.001 -0.01)">
    <path id="Path_68" data-name="Path 68" d="M179.617,15.453c-.051-.05-.1-.1-.154-.149a53.312,53.312,0,0,0-74.672.134c-.044.044-.087.088-.13.133L71.224,49.012a7.5,7.5,0,0,0,10.607,10.6l33.561-33.566.1-.1a38.318,38.318,0,0,1,53.5.107l.134.131a37.956,37.956,0,0,1-.124,53.483L135.451,113.23a7.5,7.5,0,0,0,10.608,10.605l33.56-33.563A52.973,52.973,0,0,0,179.617,15.453Z"/>
    <path id="Path_69" data-name="Path 69" d="M113.23,135.437,79.689,168.979c-.066.067-.132.136-.2.205a37.914,37.914,0,0,1-53.426-53.81L59.624,81.83a7.506,7.506,0,0,0,2.2-5.305v-.013a7.5,7.5,0,0,0-12.928-5.166L15.458,104.768a52.914,52.914,0,0,0,74.819,74.845c.076-.075.15-.153.223-.232l33.337-33.337a7.5,7.5,0,0,0-10.607-10.607Z"/>
    <path id="Path_70" data-name="Path 70" d="M59.15,135.908a7.5,7.5,0,0,0,10.607,0l66.164-66.161a7.5,7.5,0,1,0-10.6-10.607L59.152,125.3A7.5,7.5,0,0,0,59.15,135.908Z"/>
  </g>
</svg>
